<svg xmlns="http://www.w3.org/2000/svg" viewBox="0 0 512 512" role="img" aria-labelledby="title desc">
  <title id="title">AfterThemed</title>
  <desc id="desc">An icy ring on electric blue filling with a dissolving pixel field, crowned by a four-point sparkle: the AfterThemed ring, the install button's pixel fill and its sparkle.</desc>
  <rect width="512" height="512" rx="116" fill="#100BEA"/>
  <g fill="#EDF5FF"><rect x="158" y="206" width="23" height="23" rx="3"/><rect x="218" y="236" width="23" height="23" rx="3"/><rect x="308" y="236" width="23" height="23" rx="3"/><rect x="128" y="266" width="23" height="23" rx="3"/><rect x="188" y="266" width="23" height="23" rx="3"/><rect x="218" y="266" width="23" height="23" rx="3"/><rect x="278" y="266" width="23" height="23" rx="3"/><rect x="338" y="266" width="23" height="23" rx="3"/><rect x="128" y="296" width="23" height="23" rx="3"/><rect x="158" y="296" width="23" height="23" rx="3"/><rect x="218" y="296" width="23" height="23" rx="3"/><rect x="248" y="296" width="23" height="23" rx="3"/><rect x="278" y="296" width="23" height="23" rx="3"/><rect x="308" y="296" width="23" height="23" rx="3"/><rect x="338" y="296" width="23" height="23" rx="3"/><rect x="158" y="326" width="23" height="23" rx="3"/><rect x="188" y="326" width="23" height="23" rx="3"/><rect x="218" y="326" width="23" height="23" rx="3"/><rect x="248" y="326" width="23" height="23" rx="3"/><rect x="278" y="326" width="23" height="23" rx="3"/><rect x="308" y="326" width="23" height="23" rx="3"/><rect x="188" y="356" width="23" height="23" rx="3"/><rect x="218" y="356" width="23" height="23" rx="3"/><rect x="248" y="356" width="23" height="23" rx="3"/><rect x="278" y="356" width="23" height="23" rx="3"/></g>
  <circle cx="244" cy="268" r="150" fill="none" stroke="#EDF5FF" stroke-width="18"/>
  <path transform="translate(266.1 77.9) scale(6.0000)" d="M14 1.5C14.9 10.8 17.2 13.1 26.5 14C17.2 14.9 14.9 17.2 14 26.5C13.1 17.2 10.8 14.9 1.5 14C10.8 13.1 13.1 10.8 14 1.5Z" fill="#EDF5FF" stroke="#100BEA" stroke-width="4.333" stroke-linejoin="round" paint-order="stroke"/>
</svg>
